<?xml version="1.0" encoding="UTF-8"?><svg xmlns="http://www.w3.org/2000/svg" xmlns:xlink="http://www.w3.org/1999/xlink" viewBox="0 0 334.79 220.37"><defs><style>.f{fill:url(#d);}.g{fill:url(#e);}.h{fill:none;}.i{fill:#3e5eab;}</style><linearGradient id="d" x1="39.73" y1="237.06" x2="149.25" y2="127.54" gradientTransform="matrix(1, 0, 0, 1, 0, 0)" gradientUnits="userSpaceOnUse"><stop offset=".25" stop-color="#0087c0"/><stop offset="1" stop-color="#3e5eab"/></linearGradient><linearGradient id="e" x1="185.06" y1="92.48" x2="294.12" y2="-16.58" gradientTransform="matrix(1, 0, 0, 1, 0, 0)" gradientUnits="userSpaceOnUse"><stop offset="0" stop-color="#3e5eab"/><stop offset=".75" stop-color="#0087c0"/></linearGradient></defs><g id="a"/><g id="b"><g id="c"><g><path class="i" d="M256.59,220.31h-33.46c-7.3,0-14.61-.01-21.91,.06-1.28,.01-1.71-.31-1.7-1.64,.02-2.43-.12-4.87-.28-7.29-.08-1.28,.38-1.67,1.67-1.74,9.48-.51,18.97-.09,28.45-.22,.49-.01,.98,0,1.41,0-21.22-21.31-42.44-42.61-63.77-64.02l-35.66-35.83-.02-.03c-.13-.19-.31-.39-.54-.62-27.34-27.28-54.64-54.58-81.94-81.89-4.9-4.9-9.8-9.79-14.65-14.74-1.03-1.06-2.14-1.58-3.61-1.58-8.67-.05-17.35-.07-26.02-.22C-.99,10.45,.25,10.88,.03,6.05-.04,4.62,.05,3.18,0,1.74-.03,.8,.29,.45,1.28,.4,12.82-.09,24.36,.08,35.9,.21c1.15,0,1.81,.69,2.51,1.4,15.47,15.49,30.93,30.99,46.41,46.47L244.22,207.48c3.67,3.66,7.36,7.28,11.03,10.94,.47,.47,1.06,.87,1.34,1.89Z"/><path class="f" d="M167,145.46c-6.46,6.49-13.01,13.07-19.57,19.64-17.9,17.92-35.81,35.84-53.69,53.78-.72,.72-1.44,1.04-2.46,1.04-21.78-.03-43.56-.04-65.35-.05h-3.39c1.26-1.91,2.76-3.03,4.06-4.33,22.05-22.06,44.12-44.12,66.18-66.19,12.66-12.66,25.3-25.34,38-37.96,.77-.76,.93-1.19,.56-1.76l35.66,35.83Z"/><path class="g" d="M311.45,.76c-.38,.97-1.13,1.46-1.72,2.05-34.9,34.91-69.8,69.8-104.71,104.69-1.82,1.82-2.33,2.33-1.54,3.4l-36.84-36.83c.73,.42,1.34,.19,2.29-.78C192.66,49.45,216.45,25.68,240.2,1.86c.97-.98,1.96-1.37,3.3-1.34,20.52,.46,41.06-.07,61.59,.21,2.09,.03,4.19-.3,6.36,.03Z"/><path class="i" d="M333.38,220.12c-2.49,.2-4.99,.18-7.48,.18-8.68,.01-17.35-.02-26.03,.02-1.41,.01-2.45-.41-3.46-1.42C227.74,150.15,159.05,81.43,90.35,12.71c-4.09-4.1-8.19-8.2-12.25-12.25,.11-.44,.39-.38,.62-.38,17.78,.66,35.57-.33,53.35-.01,3.49,.06,3.49,.01,3.48,3.43-.01,1.81-.08,3.63,.03,5.43,.08,1.28-.27,1.69-1.62,1.68-6.86-.04-13.73,.03-20.59,.06-3.28,.01-6.55,0-9.88,0,3.25,3.4,6.24,6.64,9.34,9.75,17.6,17.62,35.24,35.19,52.81,52.83,.38,.38,.7,.66,1,.82l36.84,36.83c.3,.41,.79,.91,1.48,1.59,29.3,29.3,58.6,58.59,87.9,87.89,2.65,2.64,5.31,5.28,7.92,7.96,.8,.82,1.66,1.15,2.81,1.14,9.67-.03,19.35,.02,29.02-.03,1.52-.01,2.08,.38,2.02,1.97-.09,2.37,.03,4.75,.15,7.11,.05,1.09-.22,1.49-1.4,1.59Z"/><line class="h" x1="131.34" y1="109.63" x2="131.32" y2="109.6"/></g></g></g></svg>